<?xml version="1.0" encoding="UTF-8"?>
<mxGraphModel dx="1078" dy="677" grid="1" gridSize="10" guides="1" tooltips="1" connect="1" arrows="1" fold="1" page="1" pageScale="1" pageWidth="827" pageHeight="1169" math="0" shadow="0">
  <root>
    <mxCell id="0" />
    <mxCell id="1" parent="0" />
    
    <!-- User Class -->
    <mxCell id="2" value="User" style="rounded=1;whiteSpace=wrap;html=1;" vertex="1" parent="1">
      <mxGeometry x="100" y="100" width="160" height="120" as="geometry" />
    </mxCell>
    
    <!-- Staff Class -->
    <mxCell id="3" value="Staff" style="rounded=1;whiteSpace=wrap;html=1;" vertex="1" parent="1">
      <mxGeometry x="300" y="100" width="160" height="120" as="geometry" />
    </mxCell>
    
    <!-- Admin Class -->
    <mxCell id="4" value="Admin" style="rounded=1;whiteSpace=wrap;html=1;" vertex="1" parent="1">
      <mxGeometry x="500" y="100" width="160" height="120" as="geometry" />
    </mxCell>
    
    <!-- Meeting Class -->
    <mxCell id="5" value="Meeting" style="rounded=1;whiteSpace=wrap;html=1;" vertex="1" parent="1">
      <mxGeometry x="300" y="300" width="160" height="120" as="geometry" />
    </mxCell>
    
    <!-- Calendar Class -->
    <mxCell id="6" value="Calendar" style="rounded=1;whiteSpace=wrap;html=1;" vertex="1" parent="1">
      <mxGeometry x="500" y="300" width="160" height="120" as="geometry" />
    </mxCell>
    
    <!-- AcademicCalendar Class -->
    <mxCell id="7" value="AcademicCalendar" style="rounded=1;whiteSpace=wrap;html=1;" vertex="1" parent="1">
      <mxGeometry x="700" y="300" width="160" height="120" as="geometry" />
    </mxCell>
    
    <!-- Relationships -->
    <mxCell id="8" edge="1" source="2" target="3" parent="1">
      <mxGeometry relative="1" as="geometry" />
    </mxCell>
    
    <mxCell id="9" edge="1" source="2" target="4" parent="1">
      <mxGeometry relative="1" as="geometry" />
    </mxCell>
    
    <mxCell id="10" edge="1" source="3" target="5" parent="1">
      <mxGeometry relative="1" as="geometry" />
    </mxCell>
    
    <mxCell id="11" edge="1" source="5" target="6" parent="1">
      <mxGeometry relative="1" as="geometry" />
    </mxCell>
    
    <mxCell id="12" edge="1" source="4" target="7" parent="1">
      <mxGeometry relative="1" as="geometry" />
    </mxCell>
  </root>
</mxGraphModel>
